<svg xmlns="http://www.w3.org/2000/svg" xmlns:xlink="http://www.w3.org/1999/xlink" viewBox="0 0 156.39 33"><defs><style>.cls-1{fill:#231815;}.cls-2{fill:#fafafa;}.cls-3{fill:url(#名称未設定グラデーション_12);}</style><linearGradient id="名称未設定グラデーション_12" x1="2.01" y1="25.33" x2="27.99" y2="10.32" gradientUnits="userSpaceOnUse"><stop offset="0" stop-color="#a732d8"/><stop offset="1" stop-color="#73aeea"/></linearGradient></defs><g id="レイヤー_2" data-name="レイヤー 2"><g id="レイヤー_1-2" data-name="レイヤー 1"><path class="cls-1" d="M57,25.18a.28.28,0,0,1-.28-.28V16.3c0-2.08-.94-3.27-2.59-3.27-1.3,0-2.85.7-2.85,4V24.9a.28.28,0,0,1-.29.28H46.5a.27.27,0,0,1-.28-.28V16.37c0-2.09-.94-3.34-2.52-3.34-1.1,0-3,.45-3,3.47v8.4a.27.27,0,0,1-.28.28H36a.28.28,0,0,1-.29-.28V9A.29.29,0,0,1,36,8.67h4.47a.28.28,0,0,1,.28.29V9.3a.42.42,0,0,0,.26.39.47.47,0,0,0,.17,0,.39.39,0,0,0,.29-.11A5.24,5.24,0,0,1,45,8.26a5.67,5.67,0,0,1,4.81,2.32.43.43,0,0,0,.33.18h0a.46.46,0,0,0,.34-.16,6.55,6.55,0,0,1,5-2.34c4,0,6.36,2.88,6.36,7.9V24.9a.27.27,0,0,1-.28.28Z"/><path class="cls-1" d="M66.25,33,66,32.61l3.67-9a.42.42,0,0,0,0-.33L63.46,9.07l.26-.4h4.92a.27.27,0,0,1,.26.18L72,16.43a.43.43,0,0,0,.4.26h0a.42.42,0,0,0,.39-.27l3-7.57a.29.29,0,0,1,.27-.18h4.81l.27.4L71.29,32.82A.27.27,0,0,1,71,33Z"/><path class="cls-1" d="M92.89,25.18a.27.27,0,0,1-.28-.28V13.15a.43.43,0,0,0-.43-.43H90a.29.29,0,0,1-.29-.28V9A.29.29,0,0,1,90,8.67h2.19a.42.42,0,0,0,.43-.42V3.15a.28.28,0,0,1,.28-.28h4.47a.29.29,0,0,1,.29.28v5.1a.42.42,0,0,0,.43.42h2.66A.29.29,0,0,1,101,9v3.48a.29.29,0,0,1-.29.28H98.08a.43.43,0,0,0-.43.43V24.9a.28.28,0,0,1-.29.28Z"/><path class="cls-1" d="M110.38,25.59c-4.62,0-8-3.63-8-8.65s3.32-8.68,8.07-8.68a6.82,6.82,0,0,1,4.18,1.36.5.5,0,0,0,.26.08.41.41,0,0,0,.19,0,.42.42,0,0,0,.24-.38V9a.29.29,0,0,1,.28-.29h4.48a.29.29,0,0,1,.28.29V24.9a.28.28,0,0,1-.28.28h-4.48a.28.28,0,0,1-.28-.28v-.46a.44.44,0,0,0-.24-.39.43.43,0,0,0-.19,0,.41.41,0,0,0-.26.09A6.93,6.93,0,0,1,110.38,25.59Zm1-12.59a3.82,3.82,0,0,0-3.78,3.94,3.87,3.87,0,0,0,3.82,3.92,3.93,3.93,0,0,0,0-7.86Z"/><path class="cls-1" d="M130.26,25.59c-3.41,0-6.87-2-6.91-5.71l.28-.28h4.2a.29.29,0,0,1,.29.28c0,.81.71,1.63,2.07,1.63,1.14,0,2-.56,2-1.29,0-.49-.4-.76-1.52-1l-2.12-.51c-3.31-.89-4.86-2.58-4.86-5.33s2.93-5.07,6.54-5.07a7.29,7.29,0,0,1,5.18,1.87,4.88,4.88,0,0,1,1.38,3.61.28.28,0,0,1-.29.28h-4.26a.29.29,0,0,1-.29-.28c0-.85-.65-1.39-1.66-1.39s-1.56.48-1.56,1.11.78.94,1.36,1.09l2.63.69c3.93,1,4.51,3.57,4.51,5C137.23,23.75,133.73,25.59,130.26,25.59Z"/><path class="cls-1" d="M150.55,25.18,146,19.74a.44.44,0,0,0-.33-.16l-.15,0a.43.43,0,0,0-.28.41V24.9a.28.28,0,0,1-.29.28h-4.47a.28.28,0,0,1-.28-.28V.28a.29.29,0,0,1,.28-.28h4.47a.29.29,0,0,1,.29.28V11.86a.42.42,0,0,0,.28.4l.15,0a.45.45,0,0,0,.33-.16l2.77-3.35,6-.11a.3.3,0,0,1,.26.17.26.26,0,0,1-.05.3l-5.8,6.57a.45.45,0,0,0,0,.57l7.22,8.44a.29.29,0,0,1,0,.3.29.29,0,0,1-.26.16Z"/><path class="cls-2" d="M28.82,18.29c-1.2,8.36-7.77,8.7-13.5,9-8.27.42-15.82-2.6-13.5-11,1.69-6.13,7.15-12,13.5-12S29.73,12,28.82,18.29Z"/><path class="cls-3" d="M17.14,32.67h.11c.32,0,.64-.11.95-.18l.23,0,.81-.21.14,0c.31-.1.62-.2.92-.32l.17-.06.78-.34.13-.06c.3-.14.59-.29.88-.44l.08-.05c.27-.15.53-.31.78-.47l.11-.07a14.48,14.48,0,0,0,1.59-1.21l.07-.06a15,15,0,0,0,1.43-1.44l0,0A15.57,15.57,0,0,0,27.6,26h0A15,15,0,1,0,2.39,26h0a15.57,15.57,0,0,0,1.24,1.66l0,0A15,15,0,0,0,5.11,29.1l.07.06a14.48,14.48,0,0,0,1.59,1.21l.11.07c.25.16.51.32.78.47l.08.05c.29.15.58.3.88.44l.13.06.78.34.17.06c.3.12.61.22.92.32l.14,0,.81.21.23,0c.31.07.63.13.95.18h.11c.29,0,.59.08.88.1l.26,0c.33,0,.66,0,1,0s.67,0,1,0l.26,0C16.55,32.75,16.85,32.71,17.14,32.67ZM15,5.09a12.73,12.73,0,0,1,11.08,19h-.6a1.77,1.77,0,0,1-1.77-1.57L23,16.31a1.78,1.78,0,0,0-3.37-.56l-2.32,4.81a1.8,1.8,0,0,1-1.6,1H14.37a1.79,1.79,0,0,1-1.6-1L10.4,15.69A1.78,1.78,0,0,0,7,16.26l-.74,6.27A1.77,1.77,0,0,1,4.52,24.1h-.6A12.73,12.73,0,0,1,15,5.09Z"/></g></g></svg>